<svg width="136" height="34" viewBox="0 0 136 34" fill="none" xmlns="http://www.w3.org/2000/svg">
<circle cx="17" cy="17" r="6" fill="black"/>
<circle cx="17" cy="17" r="16.75" stroke="black" stroke-width="0.5"/>
<path d="M48.76 16.97V17.77H45.57V21H44.67V13.85H49.52V14.65H45.57V16.97H48.76ZM57.3113 18.62C57.3113 19.3867 57.0846 20 56.6313 20.46C56.1779 20.9133 55.4913 21.14 54.5713 21.14C53.6513 21.14 52.9646 20.9133 52.5113 20.46C52.0579 20 51.8313 19.3867 51.8313 18.62V13.85H52.7313V18.62C52.7313 19.2 52.8813 19.6333 53.1813 19.92C53.4879 20.2 53.9513 20.34 54.5713 20.34C55.1913 20.34 55.6513 20.2 55.9513 19.92C56.2579 19.6333 56.4113 19.2 56.4113 18.62V13.85H57.3113V18.62ZM62.7009 16.83C63.3676 16.9967 63.8743 17.15 64.2209 17.29C64.5676 17.43 64.8443 17.6433 65.0509 17.93C65.2576 18.2167 65.3609 18.6167 65.3609 19.13C65.3609 19.49 65.2676 19.8233 65.0809 20.13C64.9009 20.4367 64.6176 20.6833 64.2309 20.87C63.8443 21.05 63.3609 21.14 62.7809 21.14C62.2143 21.14 61.7009 21.0433 61.2409 20.85C60.7876 20.65 60.4209 20.36 60.1409 19.98C59.8676 19.5933 59.7143 19.1333 59.6809 18.6H60.5809C60.6343 19.1333 60.8376 19.5567 61.1909 19.87C61.5443 20.1833 62.0743 20.34 62.7809 20.34C63.3609 20.34 63.7843 20.2267 64.0509 20C64.3243 19.7733 64.4609 19.4833 64.4609 19.13C64.4609 18.8033 64.3943 18.5533 64.2609 18.38C64.1343 18.2067 63.9309 18.07 63.6509 17.97C63.3709 17.8633 62.9309 17.74 62.3309 17.6C61.8709 17.4933 61.4776 17.3733 61.1509 17.24C60.8243 17.1067 60.5476 16.9067 60.3209 16.64C60.0943 16.3733 59.9809 16.0233 59.9809 15.59C59.9809 15.0167 60.1943 14.56 60.6209 14.22C61.0476 13.88 61.6509 13.71 62.4309 13.71C63.2043 13.71 63.8309 13.9067 64.3109 14.3C64.7976 14.6867 65.0709 15.2433 65.1309 15.97H64.2309C64.1643 15.4833 63.9843 15.12 63.6909 14.88C63.4043 14.6333 62.9843 14.51 62.4309 14.51C61.9376 14.51 61.5543 14.6 61.2809 14.78C61.0143 14.9533 60.8809 15.19 60.8809 15.49C60.8809 15.79 60.9543 16.0233 61.1009 16.19C61.2476 16.35 61.4276 16.4667 61.6409 16.54C61.8543 16.6133 62.2076 16.71 62.7009 16.83ZM70.4607 16.83C71.1274 16.9967 71.634 17.15 71.9807 17.29C72.3274 17.43 72.604 17.6433 72.8107 17.93C73.0174 18.2167 73.1207 18.6167 73.1207 19.13C73.1207 19.49 73.0274 19.8233 72.8407 20.13C72.6607 20.4367 72.3774 20.6833 71.9907 20.87C71.604 21.05 71.1207 21.14 70.5407 21.14C69.974 21.14 69.4607 21.0433 69.0007 20.85C68.5474 20.65 68.1807 20.36 67.9007 19.98C67.6274 19.5933 67.474 19.1333 67.4407 18.6H68.3407C68.394 19.1333 68.5974 19.5567 68.9507 19.87C69.304 20.1833 69.834 20.34 70.5407 20.34C71.1207 20.34 71.544 20.2267 71.8107 20C72.084 19.7733 72.2207 19.4833 72.2207 19.13C72.2207 18.8033 72.154 18.5533 72.0207 18.38C71.894 18.2067 71.6907 18.07 71.4107 17.97C71.1307 17.8633 70.6907 17.74 70.0907 17.6C69.6307 17.4933 69.2374 17.3733 68.9107 17.24C68.584 17.1067 68.3074 16.9067 68.0807 16.64C67.854 16.3733 67.7407 16.0233 67.7407 15.59C67.7407 15.0167 67.954 14.56 68.3807 14.22C68.8074 13.88 69.4107 13.71 70.1907 13.71C70.964 13.71 71.5907 13.9067 72.0707 14.3C72.5574 14.6867 72.8307 15.2433 72.8907 15.97H71.9907C71.924 15.4833 71.744 15.12 71.4507 14.88C71.164 14.6333 70.744 14.51 70.1907 14.51C69.6974 14.51 69.314 14.6 69.0407 14.78C68.774 14.9533 68.6407 15.19 68.6407 15.49C68.6407 15.79 68.714 16.0233 68.8607 16.19C69.0074 16.35 69.1874 16.4667 69.4007 16.54C69.614 16.6133 69.9674 16.71 70.4607 16.83ZM76.5705 13.85V21H75.6705V13.85H76.5705ZM80.3259 13.85V20.2H84.0759V21H79.4259V13.85H80.3259ZM95.1849 15.65C95.1849 16.3833 94.8149 16.8767 94.0749 17.13V17.15C94.4816 17.2167 94.8149 17.4033 95.0749 17.71C95.3349 18.01 95.4649 18.4133 95.4649 18.92C95.4649 19.5733 95.2483 20.0833 94.8149 20.45C94.3816 20.8167 93.7916 21 93.0449 21H89.9649V13.85H92.8449C93.5716 13.85 94.1416 14.0133 94.5549 14.34C94.9749 14.66 95.1849 15.0967 95.1849 15.65ZM92.9849 16.84C93.4649 16.84 93.8016 16.7467 93.9949 16.56C94.1883 16.3733 94.2849 16.1033 94.2849 15.75C94.2849 15.41 94.1849 15.1433 93.9849 14.95C93.7849 14.75 93.4849 14.65 93.0849 14.65H90.8649V16.84H92.9849ZM90.8649 20.2H93.1349C94.0883 20.2 94.5649 19.7733 94.5649 18.92C94.5649 18.5333 94.4516 18.2233 94.2249 17.99C94.0049 17.7567 93.7083 17.64 93.3349 17.64H90.8649V20.2ZM102.47 16.9V17.7H98.8005V20.2H103.07V21H97.9005V13.85H102.95V14.65H98.8005V16.9H102.47ZM107.551 14.65H105.171V13.85H110.831V14.65H108.451V21H107.551V14.65ZM113.316 19.21L112.686 21H111.756L114.396 13.85H115.396L118.026 21H117.096L116.466 19.21H113.316ZM116.176 18.41L114.906 14.68H114.886L113.616 18.41H116.176ZM124.183 13.85L126.223 20.1H126.233L128.273 13.85H129.223L126.723 21H125.733L123.233 13.85H124.183ZM130.916 21.07C130.756 21.07 130.622 21.02 130.516 20.92C130.416 20.82 130.366 20.6867 130.366 20.52C130.366 20.36 130.416 20.23 130.516 20.13C130.622 20.0233 130.756 19.97 130.916 19.97C131.076 19.97 131.206 20.0233 131.306 20.13C131.412 20.23 131.466 20.36 131.466 20.52C131.466 20.6867 131.412 20.82 131.306 20.92C131.206 21.02 131.076 21.07 130.916 21.07ZM135.092 14.09V21H134.192V15.83C133.999 16.01 133.802 16.1233 133.602 16.17C133.409 16.21 133.125 16.23 132.752 16.23V15.58C133.319 15.58 133.719 15.4567 133.952 15.21C134.192 14.9567 134.339 14.5833 134.392 14.09H135.092Z" fill="black"/>
</svg>
